HIERARCHY
ROOT hip
{
	OFFSET 0.000000 0.000000 0.000000 
	CHANNELS 6 Xposition Yposition Zposition Xrotation Zrotation Yrotation
	JOINT abdomen
	{
		OFFSET 0.000000 3.402643 0.000000 
		CHANNELS 3 Xrotation Zrotation Yrotation
		JOINT chest
		{
			OFFSET 0.000000 8.438565 -0.680529 
			CHANNELS 3 Xrotation Zrotation Yrotation
			JOINT neck
			{
				OFFSET 0.000000 10.207942 -0.272212 
				CHANNELS 3 Xrotation Zrotation Yrotation
				JOINT head
				{
					OFFSET 0.000000 3.130431 0.000000 
					CHANNELS 3 Xrotation Zrotation Yrotation
					End Site
					{
						OFFSET 0.000000 3.130435 0.000000 
					}
				}
			}
			JOINT lCollar
			{
				OFFSET 3.470700 6.669187 -0.816635 
				CHANNELS 3 Yrotation Zrotation Xrotation
				JOINT lShldr
				{
					OFFSET 3.198488 0.000000 0.000000 
					CHANNELS 3 Zrotation Yrotation Xrotation
					JOINT lForeArm
					{
						OFFSET 10.139888 0.000000 0.000000 
						CHANNELS 3 Yrotation Zrotation Xrotation
						JOINT lHand
						{
							OFFSET 8.370511 0.000000 0.000000 
							CHANNELS 3 Zrotation Yrotation Xrotation
							End Site
							{
								OFFSET 4.083176 0.000000 0.000000 
							}
						}
					}
				}
			}
			JOINT rCollar
			{
				OFFSET -3.470700 6.669187 -0.816635 
				CHANNELS 3 Yrotation Zrotation Xrotation
				JOINT rShldr
				{
					OFFSET -3.198488 0.000000 0.000000 
					CHANNELS 3 Zrotation Yrotation Xrotation
					JOINT rForeArm
					{
						OFFSET -10.139888 0.000000 0.000000 
						CHANNELS 3 Yrotation Zrotation Xrotation
						JOINT rHand
						{
							OFFSET -8.370511 0.000000 0.000000 
							CHANNELS 3 Zrotation Yrotation Xrotation
							End Site
							{
								OFFSET -4.083176 0.000000 0.000000 
							}
						}
					}
				}
			}
		}
	}
	JOINT lThigh
	{
		OFFSET 5.308129 -1.633274 1.361059 
		CHANNELS 3 Xrotation Zrotation Yrotation
		JOINT lShin
		{
			OFFSET -2.041588 -20.007561 0.000000 
			CHANNELS 3 Xrotation Zrotation Yrotation
			JOINT lFoot
			{
				OFFSET 0.000000 -19.190928 -1.224953 
				CHANNELS 3 Xrotation Yrotation Zrotation
				End Site
				{
					OFFSET 0.000000 -2.449906 4.627600 
				}
			}
		}
	}
	JOINT rThigh
	{
		OFFSET -5.308129 -1.633274 1.361059 
		CHANNELS 3 Xrotation Zrotation Yrotation
		JOINT rShin
		{
			OFFSET 2.041588 -20.007561 0.000000 
			CHANNELS 3 Xrotation Zrotation Yrotation
			JOINT rFoot
			{
				OFFSET 0.000000 -19.190928 -1.224953 
				CHANNELS 3 Xrotation Yrotation Zrotation
				End Site
				{
					OFFSET 0.000000 -2.449906 4.627600 
				}
			}
		}
	}
}
MOTION
Frames: 6
Frame Time: 0.011111
50.738831 53.221947 -26.631556 -4.281044 2.129633 -35.869621 17.125914 8.485589 -0.862003 -30.708302 7.830062 -1.684760 0.526914 13.962076 12.377652 -33.426506 -16.941353 31.021439 -1.931697 -12.150426 0.122601 49.337204 -48.310123 -45.943512 -54.510616 8.591489 10.012975 8.524705 12.647240 9.674424 4.400109 13.372850 -0.765886 -41.373371 54.236881 -8.599389 71.453697 -8.972386 17.819847 -8.534408 -12.637552 51.419781 -16.932932 11.415470 6.641688 59.309956 -2.817564 -8.084035 6.107959 -12.110933 -2.275230 -5.350930 -16.839851 -8.400668 49.647667 3.808581 7.147324 -14.653415 9.563224 5.771393 
50.905956 53.147972 -26.340315 -4.649268 2.470946 -37.855675 17.239267 8.163462 -0.769723 -30.527258 8.114811 -1.647695 0.912480 13.479403 12.690101 -33.589825 -16.647289 31.423197 -1.931697 -12.150426 0.122601 51.071835 -47.639565 -47.020939 -54.362675 8.566004 9.948896 8.524705 12.647240 9.957627 4.400109 13.372850 -0.765886 -39.852345 54.530197 -6.915023 71.620537 -8.946312 17.898232 -8.534408 -12.637552 51.429546 -17.155804 11.433533 6.759497 59.427399 -2.798014 -8.092470 3.740197 -12.595273 -2.854476 -5.594479 -17.053944 -8.858240 49.460732 3.830441 7.131495 -14.781170 8.575517 5.473771 
51.051735 53.144566 -26.048767 -5.064409 2.940118 -39.966629 17.337021 7.627089 -0.603507 -30.342428 8.230903 -1.552311 0.758726 13.247169 12.952332 -32.956669 -16.341183 31.729296 -1.931697 -12.150426 0.122601 52.969952 -46.976986 -48.083126 -54.278450 8.552938 9.916843 8.524705 12.647240 10.201769 4.400109 13.372850 -0.765886 -38.097256 54.791965 -5.428771 71.714439 -8.932018 17.949032 -8.534408 -12.637552 51.351421 -17.206970 11.396564 6.947073 59.202183 -2.840795 -8.078275 1.603884 -12.593888 -3.387174 -5.839193 -17.456366 -8.834930 49.421680 3.828133 7.127210 -15.000306 7.787584 5.257903 
51.188534 53.156944 -25.740503 -5.418335 3.243254 -42.166088 17.557156 7.168693 0.019519 -30.233057 8.188612 -1.330092 0.626158 13.542743 13.112069 -32.595699 -16.905638 32.258774 -1.931697 -12.150426 0.122601 54.934383 -46.710316 -49.760441 -54.046291 8.513204 9.819806 8.524705 12.647240 9.537705 4.400109 13.372850 -0.765886 -36.335514 54.556438 -3.950554 71.798271 -8.920107 17.998531 -8.534408 -12.637552 51.400246 -17.122440 11.537390 7.170923 58.713612 -2.885851 -8.024723 -0.841147 -11.945392 -3.882082 -5.985132 -17.727251 -8.707798 49.392109 3.837731 7.119232 -16.742252 5.569728 4.665336 
51.314495 53.159733 -25.411196 -5.656249 3.321583 -44.297443 17.836466 7.046223 0.624228 -30.380346 8.154924 -1.177526 1.156775 13.515409 13.374361 -32.871006 -17.250010 32.833019 -1.931697 -12.150426 0.122601 56.742565 -46.439533 -51.078964 -53.761364 8.461532 9.693094 8.524705 12.647240 8.717394 4.400109 13.372850 -0.765886 -34.445602 54.367062 -2.134372 71.962799 -8.888742 18.066523 -8.534408 -12.637552 51.331890 -17.038574 12.009571 7.330577 58.038315 -2.962487 -7.972456 -2.330243 -11.030134 -4.105934 -5.936200 -17.775381 -9.265500 49.264896 3.847569 7.093458 -18.646881 1.229221 3.218004 
51.440773 53.069672 -25.104790 -6.003922 3.410545 -46.355164 18.189171 6.922610 0.931897 -30.590918 8.303543 -1.125258 1.698158 13.239729 13.594209 -32.896194 -17.510860 33.199417 -1.931697 -12.150426 0.122601 58.213264 -45.833866 -51.758339 -53.666389 8.443912 9.650569 8.524705 12.647240 8.014269 4.400109 13.372850 -0.765886 -32.646961 54.393845 -0.118590 72.129807 -8.862340 18.156019 -8.534408 -12.637552 51.107285 -16.977287 12.456156 7.363539 57.275066 -3.042164 -7.903632 -2.967904 -9.980656 -4.102064 -5.604383 -17.981535 -9.062911 48.832443 3.879344 7.061110 -20.172295 0.620755 2.924212 
